<svg xmlns="http://www.w3.org/2000/svg" id="uuid-408b58b3-e7f0-4436-8db6-3da4aa2d9086" viewBox="0 0 251.5 52.35"><defs><style>.uuid-560327da-c313-4f4f-80d5-d6e7c7beacba{fill:#f0f0f0;}</style></defs><path class="uuid-560327da-c313-4f4f-80d5-d6e7c7beacba" d="M.86,52.35v-13.32H40.68c3.1,0,4.97-1.44,4.97-4.03s-1.87-4.25-4.97-4.25H17.35C6.62,30.75,0,24.55,0,15.48S6.19,0,17.5,0H55.59V13.25H17.5c-2.16,0-3.67,1.22-3.67,3.74s1.51,3.74,3.67,3.74h23.19c11.45,0,17.57,4.82,17.57,15.48,0,9.22-5.76,16.13-17.57,16.13H.86Z"></path><path class="uuid-560327da-c313-4f4f-80d5-d6e7c7beacba" d="M100.66,52.35V0h13.32V52.35h-13.32Zm39.75,0V31.4h-20.09v-11.23h20.09V0h13.32V52.35h-13.32Z"></path><path class="uuid-560327da-c313-4f4f-80d5-d6e7c7beacba" d="M222.19,52.35c-15.19,0-26.35-11.52-26.35-26.71S207,0,222.19,0h29.31V13.25h-29.31c-7.49,0-13.03,5.54-13.03,13.03s5.4,12.75,13.03,12.75h29.31v13.32h-29.31Z"></path></svg>